<svg xmlns="http://www.w3.org/2000/svg" version="1.1" xmlns:xlink="http://www.w3.org/1999/xlink" viewBox="0 0 200 200"><rect width="200" height="200" fill="url('#gradient')"></rect><defs><linearGradient id="gradient" gradientTransform="rotate(97 0.5 0.5)"><stop offset="0%" stop-color="#151323"></stop><stop offset="100%" stop-color="#0d498e"></stop></linearGradient></defs><g><g fill="#ffffff" transform="matrix(1.4627410522974367,0,0,1.4627410522974367,9.699281988969517,110.39714996474724)" stroke="#739bab" stroke-width="0.2"><path d="M10.11-14.22L12.09-5.30L13.72-14.22L17.12-14.22L14.10 0L10.55 0L8.64-8.11L6.78 0L3.23 0L0.21-14.22L3.61-14.22L5.24-5.30L7.20-14.22L10.11-14.22ZM30.50-7.47L30.50-6.82Q30.50-4.74 29.73-3.13Q28.96-1.53 27.53-0.67Q26.11 0.20 24.30 0.20Q22.48 0.20 21.07-0.64Q19.67-1.47 18.88-3.03Q18.10-4.58 18.06-6.59L18.06-6.59L18.06-7.39Q18.06-9.48 18.82-11.08Q19.59-12.68 21.02-13.54Q22.45-14.41 24.28-14.41L24.28-14.41Q26.08-14.41 27.50-13.55Q28.92-12.70 29.70-11.11Q30.49-9.52 30.50-7.47L30.50-7.47ZM27.01-6.76L27.01-7.41Q27.01-9.53 26.30-10.63Q25.60-11.73 24.28-11.73L24.28-11.73Q21.70-11.73 21.55-7.86L21.55-7.86L21.54-6.82Q21.54-4.73 22.24-3.60Q22.93-2.48 24.30-2.48L24.30-2.48Q25.60-2.48 26.30-3.58Q27.00-4.69 27.01-6.76L27.01-6.76ZM40.06 0L37.55-5.02L35.69-5.02L35.69 0L32.27 0L32.27-14.22L37.86-14.22Q40.39-14.22 41.82-13.10Q43.24-11.97 43.24-9.92L43.24-9.92Q43.24-8.44 42.64-7.46Q42.04-6.48 40.76-5.88L40.76-5.88L43.73-0.15L43.73 0L40.06 0ZM35.69-11.57L35.69-7.67L37.86-7.67Q38.84-7.67 39.33-8.18Q39.82-8.69 39.82-9.61Q39.82-10.53 39.33-11.05Q38.83-11.57 37.86-11.57L37.86-11.57L35.69-11.57ZM48.74-14.22L48.74-2.64L54.71-2.64L54.71 0L45.31 0L45.31-14.22L48.74-14.22ZM60.83 0L56.15 0L56.15-14.22L60.73-14.22Q62.62-14.22 64.12-13.36Q65.63-12.51 66.47-10.95Q67.31-9.39 67.32-7.46L67.32-7.46L67.32-6.81Q67.32-4.85 66.50-3.31Q65.67-1.76 64.17-0.88Q62.68-0.01 60.83 0L60.83 0ZM60.73-11.57L59.58-11.57L59.58-2.64L60.77-2.64Q62.25-2.64 63.04-3.69Q63.83-4.74 63.83-6.81L63.83-6.81L63.83-7.42Q63.83-9.48 63.04-10.53Q62.25-11.57 60.73-11.57L60.73-11.57ZM78.74 0L74.06 0L74.06-14.22L78.64-14.22Q80.53-14.22 82.03-13.36Q83.54-12.51 84.38-10.95Q85.22-9.39 85.23-7.46L85.23-7.46L85.23-6.81Q85.23-4.85 84.41-3.31Q83.58-1.76 82.08-0.88Q80.59-0.01 78.74 0L78.74 0ZM78.64-11.57L77.49-11.57L77.49-2.64L78.68-2.64Q80.16-2.64 80.95-3.69Q81.74-4.74 81.74-6.81L81.74-6.81L81.74-7.42Q81.74-9.48 80.95-10.53Q80.16-11.57 78.64-11.57L78.64-11.57ZM95.69 0L94.86-2.66L90.17-2.66L89.35 0L85.68 0L90.90-14.22L94.12-14.22L99.38 0L95.69 0ZM92.51-10.23L90.99-5.30L94.04-5.30L92.51-10.23ZM110.40-14.22L110.40-11.57L106.13-11.57L106.13 0L102.71 0L102.71-11.57L98.52-11.57L98.52-14.22L110.40-14.22ZM119.58 0L118.75-2.66L114.05-2.66L113.23 0L109.57 0L114.79-14.22L118.01-14.22L123.26 0L119.58 0ZM116.40-10.23L114.87-5.30L117.93-5.30L116.40-10.23Z"></path></g></g></svg>